<?xml version="1.0" encoding="UTF-8"?>
<!DOCTYPE svg PUBLIC "-//W3C//DTD SVG 1.1//EN" "http://www.w3.org/Graphics/SVG/1.1/DTD/svg11.dtd">
<!-- Creator: CorelDRAW 2018 (64-Bit) -->
<svg xmlns="http://www.w3.org/2000/svg" xml:space="preserve" width="621px" height="560px" version="1.1" style="shape-rendering:geometricPrecision; text-rendering:geometricPrecision; image-rendering:optimizeQuality; fill-rule:evenodd; clip-rule:evenodd"
viewBox="0 0 89.7 80.82"
 xmlns:xlink="http://www.w3.org/1999/xlink">
 <defs>
  <style type="text/css">
   <![CDATA[
    .fil0 {fill:#064982}
   ]]>
  </style>
 </defs>
 <g id="Слой_x0020_1">
  <metadata id="CorelCorpID_0Corel-Layer"/>
  <path class="fil0" d="M30.28 36.4c-0.28,2.16 -0.56,3.66 1.6,6.09 2.29,2.56 4.04,2.86 4.61,3.43 -0.47,0.75 -2.16,1 -3.16,1.07 -3.26,0.22 -6.44,-1.39 -7.92,-4.31 -0.26,-0.52 -0.36,-0.96 -0.63,-1.47 -1.03,-1.95 -0.89,-5.92 0.43,-8.34 0.47,-0.87 1.15,-1.92 2,-2.2 0.25,-0.27 0.02,-0.11 0.37,-0.43 0.85,-0.79 2.21,-1.65 3.32,-2.11 0.59,-0.24 1.15,-0.36 1.69,-0.58 1.42,-0.58 4.15,-0.75 5.81,-0.61 1.02,0.09 0.56,0.29 1.23,0.28 0.94,0 0.19,0.08 0.52,-0.16 0.39,-0.47 -0.05,-3.59 1.19,-5.95 0.21,-0.39 0.15,-0.37 0.32,-0.75 0.26,-0.55 0.45,-0.47 0.78,-1.09l1.14 -2.03c0.38,-0.61 0.75,-1.38 1.45,-1.61l3.21 4.7c0.83,1.96 1.44,4.12 1.47,6.77 1.9,0.23 5.79,-1.19 10.51,1.56 5.84,3.41 6.84,10.11 3.72,14.73 -0.2,0.3 -0.45,0.59 -0.68,0.88 -0.71,0.87 -1.79,1.49 -2.73,1.96 -0.45,0.23 -0.75,0.19 -1.22,0.39 -1.22,0.5 -2.95,0.43 -4.09,0.08 -1.17,-0.36 -1.48,0.13 -2.02,-0.81 0.42,-0.28 1.17,-0.33 3.03,-1.67 8.22,-5.91 1.05,-13.83 -4.93,-11.23 -3.11,1.35 -4.82,6.67 -4.25,10.08 0.55,3.33 2.32,6.29 5.01,8.22 0.29,0.21 0.44,0.41 0.64,0.57 0.28,0.25 0.95,0.61 1.42,0.84 2.73,1.33 7.6,1.15 10.26,-0.18 2.14,-1.07 6.27,-4.87 7.19,-7.29 1.95,-5.16 3.15,-5.06 0.83,-8.54l-6.57 -9.3c-0.22,-0.28 -0.31,-0.38 -0.5,-0.69 -0.65,-1.09 -1.22,-1.85 -1.91,-2.83l-6.36 -9.36c-0.74,-1 -1.51,-2.57 -2.52,-3.59l-3.02 -4.31c-2.21,-3.01 -3.82,-7.55 -7.68,-6.44 -1.99,0.57 -3.32,3.48 -4.57,5.08l-11.84 17.15c-1.76,2.66 -5.42,7.55 -6.82,9.95l-3.03 4.28c-1.83,2.95 -1.33,2.19 -0.56,5.28 0.39,1.56 0.75,2.16 1.43,3.51 0.66,1.3 3.16,4.4 4.33,5.28 2.97,2.22 4.67,3.01 9.16,2.91 1.58,-0.04 2.78,-0.45 3.86,-1.02 1.75,-0.93 4.13,-2.8 5.1,-4.5 0.47,-0.82 1.29,-2.59 1.49,-3.42 0.61,-2.48 0.54,-6.46 -0.63,-8.42 -1.49,-2.52 -2.64,-3.71 -5.81,-3.79 -2.82,-0.08 -4.92,2.06 -5.67,3.94zm59.32 44.23l-2.66 0 -1.61 -2.4c-0.48,-0.72 -0.74,-1.11 -0.79,-1.17 -0.38,-0.49 -0.73,-0.8 -1.05,-0.91 -0.24,-0.08 -0.61,-0.13 -1.12,-0.13l-0.45 0 0 4.61 -2.24 0 0 -11.03 4.69 0c0.97,0 1.68,0.06 2.14,0.17 0.76,0.2 1.33,0.59 1.71,1.18 0.32,0.51 0.48,1.09 0.48,1.74 0,1.77 -0.97,2.79 -2.91,3.07 0.55,0.32 1.02,0.72 1.42,1.18 0.23,0.28 0.58,0.8 1.04,1.54l1.35 2.15zm-3.2 -7.79c0,-0.77 -0.38,-1.21 -1.13,-1.33 -0.16,-0.03 -0.7,-0.05 -1.62,-0.05l-1.73 0 0 2.81 1.64 0c0.82,0 1.28,-0.01 1.4,-0.02 0.6,-0.07 1,-0.26 1.22,-0.58 0.15,-0.22 0.22,-0.5 0.22,-0.83zm-11.66 2.55c0,1.07 -0.03,1.8 -0.07,2.19 -0.12,0.87 -0.37,1.54 -0.77,2 -0.72,0.83 -1.86,1.24 -3.43,1.24 -1.74,0 -2.97,-0.44 -3.69,-1.32 -0.31,-0.39 -0.52,-0.79 -0.62,-1.22 -0.15,-0.62 -0.22,-1.56 -0.22,-2.8l0 -5.88 2.24 0 0 5.97c0,0.96 0.02,1.57 0.08,1.84 0.2,1 0.92,1.5 2.15,1.5 1.18,0 1.84,-0.45 2,-1.34 0.06,-0.38 0.1,-1 0.1,-1.87l0 -6.1 2.23 0 0 5.79zm-13.17 -0.26c0,1.72 -0.45,3.08 -1.37,4.1 -0.95,1.06 -2.27,1.59 -3.96,1.59 -1.69,0 -3.01,-0.52 -3.97,-1.56 -0.92,-1.01 -1.39,-2.37 -1.39,-4.08 0,-1.84 0.51,-3.29 1.53,-4.34 0.93,-0.95 2.19,-1.42 3.8,-1.42 1.7,0 3.03,0.53 3.99,1.6 0.91,1.01 1.37,2.39 1.37,4.11zm-2.29 -0.05c0,-1.1 -0.23,-1.98 -0.68,-2.63 -0.52,-0.75 -1.31,-1.12 -2.36,-1.12 -1.06,0 -1.85,0.38 -2.38,1.14 -0.45,0.66 -0.68,1.54 -0.68,2.64 0,1.07 0.23,1.95 0.7,2.62 0.54,0.79 1.33,1.18 2.36,1.18 1.04,0 1.82,-0.4 2.35,-1.18 0.46,-0.68 0.69,-1.56 0.69,-2.65zm-11.72 -3.62l-3.27 0 0 9.17 -2.23 0 0 -9.17 -3.27 0 0 -1.86 8.77 0 0 1.86zm-11.97 9.17l-8.96 0 0 -2.01 5.79 -7.16 -5.14 0 0 -1.86 8.07 0 0 1.74 -6.04 7.44 6.28 0 0 1.85zm-11.81 0l-2.42 0 -0.97 -2.51 -4.4 0 -0.91 2.51 -2.36 0 4.29 -11.03 2.36 0 4.41 11.03zm-4.1 -4.36l-1.52 -4.1 -1.48 4.1 3 0zm-9.63 4.36l-2.89 0 -3.03 -5.17 -1.79 1.84 0 3.33 -2.24 0 0 -11.03 2.24 0 0 4.9 4.49 -4.9 3.01 0 -4.17 4.3 4.38 6.73zm28.6 -23.18c0.06,0.05 0.17,0.33 0.31,0.47l1.34 0.93c2.5,2.13 2.42,3.37 2.48,6.83l4.21 0c0.14,-2.43 -0.16,-3.45 0.99,-5.12 1.35,-1.98 2.15,-2.04 3.16,-2.94 -0.2,-0.47 -3.88,-3.15 -4.55,-3.66 -1.95,-1.48 -1.48,-1.4 -5,1.27 -0.91,0.7 -2.09,1.44 -2.94,2.22zm-31.5 4.01c0.77,-0.49 9.36,-0.95 11.09,-1.14 0.96,-0.1 2.03,-0.01 3.01,-0.16 0.91,-0.14 4.09,-0.57 5.07,-0.04 0.03,0.02 0.08,0.04 0.11,0.06 0.91,0.6 2.79,4.53 -3.42,3.8 -3.93,-0.46 -9.56,-1.55 -13.43,-1.97 -1.32,-0.15 -1.74,0.17 -2.43,-0.55zm29.57 4.23c-0.03,-0.96 -0.23,-1.1 -1.13,-1.96 -0.17,-0.16 -0.59,-0.53 -0.74,-0.64l-0.84 -0.57c-0.59,-0.44 -1.01,-0.76 -1.64,-1.14 -1.14,-0.7 -3.6,-1.68 -4.93,-2.24 -0.06,-0.03 -0.38,-0.16 -0.49,-0.21 -0.03,-0.02 -0.08,-0.05 -0.11,-0.07 -1.22,-0.67 -1.63,-0.5 -2.43,-0.89 -2.02,-0.99 -3.58,-1.65 -5.45,-3.08 -2.08,-1.59 -2.41,-1.99 -4.03,-4.01 -0.5,-0.63 -0.77,-1.08 -1.14,-1.66l-2.11 -3.51c-0.79,0.15 -0.79,0.62 -1.23,1.25l-6.45 9.45c-1.34,1.95 -6.01,6.95 -3.02,8.61 1.12,0.63 2.25,0.68 3.9,0.68l31.84 -0.01zm46.33 -3.18c-0.23,0.43 -1.63,0.57 -2.24,0.6l-13.62 1.01c-1.13,0.03 -1.78,0.13 -2.47,-0.55 -1.53,-1.52 -0.49,-4.58 3.52,-3.5 1.81,0.49 13.39,1.74 14.81,2.44zm1.43 3.19c1.52,0 2.95,0.07 4.07,-0.5 3.21,-1.65 -1.14,-6.59 -2.73,-8.92 -0.37,-0.53 -0.53,-0.9 -0.88,-1.4l-4.71 -6.6c-0.35,-0.59 -0.46,-0.88 -0.89,-1.41 -0.42,-0.53 -0.45,-0.9 -0.97,-1.15 -0.51,0.2 -0.63,0.76 -1.24,1.75 -2.15,3.54 -2.6,4.29 -5.6,6.99 -2.67,2.4 -5.19,2.9 -8.35,4.38 -2.21,1.04 -9.94,3.68 -10.01,6.86l31.31 0z"/>
 </g>
</svg>
